<svg xmlns="http://www.w3.org/2000/svg" xmlns:xlink="http://www.w3.org/1999/xlink" viewBox="0 0 480 480"><defs><style>.cls-1{fill:url(#linear-gradient);}.cls-2{fill:#2a2b2c;}.cls-3{fill:#f9ff00;}.cls-4{fill:#edff00;}.cls-5{fill:url(#radial-gradient);}.cls-6{stroke:#fcf500;stroke-miterlimit:10;fill:url(#radial-gradient-2);}.cls-7{font-size:73.37px;font-family:Algerian;}</style><linearGradient id="linear-gradient" x1="130.04" y1="349.96" x2="470.52" y2="9.48" gradientUnits="userSpaceOnUse"><stop offset="0" stop-color="aqua"/><stop offset="0.32" stop-color="#31d4e9"/><stop offset="0.73" stop-color="#6c9fcf"/><stop offset="0.93" stop-color="#838bc5"/></linearGradient><radialGradient id="radial-gradient" cx="162.39" cy="272.33" r="77.86" gradientUnits="userSpaceOnUse"><stop offset="0" stop-color="#ffffdf"/><stop offset="1" stop-color="#fcee21"/></radialGradient><radialGradient id="radial-gradient-2" cx="179.87" cy="317.95" fx="236.02051990914032" r="61.55" gradientUnits="userSpaceOnUse"><stop offset="0.03" stop-color="#efccbf"/><stop offset="0.31" stop-color="#efcc77"/><stop offset="0.65" stop-color="#efcc24"/><stop offset="0.81" stop-color="#efcc03"/></radialGradient></defs><title>Artboard 1</title><g id="Background"><rect class="cls-1" width="480" height="480"/></g><g id="Layer_6" data-name="Layer 6"><path class="cls-2" d="M272.68,291.89a6.78,6.78,0,0,0-.54,2.67c0,3.59,2.69,5.78,3.59,6.49a105.62,105.62,0,0,1,8.48,7.52,1.56,1.56,0,0,1,.33.62c.5,6.17.93,12.48,1.34,18.58.4,5.72.8,11.63,1.26,17.46v.09a3.49,3.49,0,0,1-.33.32q-11.07,9.71-22.1,19.47c-8.64,7.63-17.58,15.52-26.4,23.23-1.08,1-4,3.47-3.44,7.21s3.7,5.22,4.91,5.82a76.56,76.56,0,0,1,7.46,4.34,10.13,10.13,0,0,0,4.7,1.66,10,10,0,0,0,6.95-2.31c18.33-13.9,37.7-28.49,60.95-45.9a10.77,10.77,0,0,0,4.81-9.55c-.15-3.82-.2-7.77-.25-11.59-.08-7.16-.17-14.57-.91-21.84s1-11.82,6.34-15.81c2.39-1.79,3.64-3.91,3.72-6.3.12-3.56-2.48-5.79-3.46-6.63-3.28-2.8-6.59-5.71-9.79-8.53-2.88-2.54-5.87-5.16-8.86-7.74,1.62-6.38,3.16-12.85,4.66-19.11l1-4.39q4.38-18.3,8.75-36.6l6-27.73c.93-1,1.85-2,2.8-2.92.68-.69,2.47-1.34,3-1,1.61,1,2.52.28,3.69-1,6.28-6.7,12.55-13.41,19-20,1.8-1.85,1.59-2.8,0-4.13-3.38-2.8-6.56-5.81-9.83-8.74l2.79,2.4L489.85,3.6,476.35-8,339.67,136.26l2.73,2.35c-3.31-2.73-6.72-5.36-9.88-8.25-1.77-1.61-2.94-1.56-4.86.55-5.79,6.33-11.77,12.52-17.68,18.76-1.4,1.49-3.47,2.88-1.08,4.77.26.21-.35,1.82-.94,2.46-.92,1-1.85,2-2.77,2.95l-9.67,2.71-1,.26c-.86.24-1.73.47-2.59.75l-14.44,4.69c-20.31,6.6-41.3,13.42-61.94,20.23l-.19.06c-3.31-2.88-6.71-5.75-10-8.52-3.1-2.63-6.2-5.25-9.27-7.91a8.57,8.57,0,0,0-6.27-2.32,8.85,8.85,0,0,0-6,3.32,77.48,77.48,0,0,1-6.52,6.93,3.68,3.68,0,0,1-1.12.68c-13.64,1.15-28,2.22-43.81,3.29a11.46,11.46,0,0,0-9.46,5.44c-14.09,21.31-28.15,42.44-41.8,62.81-2.51,3.75-2.34,7.48.51,10.8A84.55,84.55,0,0,1,87.12,270c.65.95,2.64,3.87,6.46,3.95s6.12-2.72,7.06-3.93q10.29-13.18,20.66-26.32,9.58-12.15,19.13-24.34a2,2,0,0,1,.16-.2l3.13-.08c10.09-.25,20.53-.51,30.89-1.17,4.45-.28,5.71.7,6.71,1.82a26.41,26.41,0,0,0,3.81,3.37,20,20,0,0,1,2,1.66c.91.92,3.65,3.7,7.83,3.34a8.36,8.36,0,0,0,2.84-.76m45.67,56.09h0M209.7,254.37,289,273.77a10.28,10.28,0,0,1-1.5,1.79c-3.11-1.84-6.28-3.56-9.37-5.24-7.66-4.16-14.9-8.1-20.95-13.43l-.09-.14-.44-.62-1.2-1c1-2.19-.06-3.33-3.21-6.57l.07-.08,1.84,1.63,34-36.46c2.08,1.67,4.18,3.32,6.07,5.17s3,1.31,4.81-.63c1.53-1.65,3.1-3.26,4.67-4.87-.49,2-1,4.06-1.46,6.09C297.93,237.22,293.53,255.67,289,273.77ZM237.41,239.7l-.62-.47c-4.63-3-8.07-7.55-11.72-12.33-1.42-1.86-2.89-3.79-4.46-5.67s-2.85-3.53-4.33-5.43c-1-1.31-2.05-2.65-3.15-4a14.28,14.28,0,0,1,5.5-3.09c16.92-5.36,34.09-10.93,50.69-16.32l7.25-2.36c-1.51,1.65-3,3.3-4.58,4.91-1.85,1.94-2.19,3.1-.17,4.63s3.61,3,5.35,4.63l-33.84,36.33,2,1.75-.12.13c-1.21-.92-2.39-1.89-3.65-2.74-.55-.37-1.58-.92-1.89-.69-.55.4-1.1.82-1.64,1.24Z"/><path class="cls-3" d="M324.48,191.52l-12.36,13.42c-4.34,4.42-8.76,8.76-13,13.27-1.82,1.94-3,2.4-4.8.63-2.39-2.34-5.12-4.34-7.71-6.48l-7.08-6.11c-2.51-2.23-4.88-4.62-7.56-6.65-2-1.52-1.68-2.69.17-4.62,4.28-4.46,8.36-9.1,12.52-13.67l12.74-13.09c3.58-3.74,7.2-7.46,10.71-11.26.59-.64,1.2-2.26.95-2.46-2.4-1.89-.32-3.29,1.08-4.77,5.9-6.25,11.88-12.43,17.67-18.77,1.92-2.1,3.09-2.16,4.86-.54,3.16,2.89,6.58,5.51,9.89,8.25l8.09,7c3.27,2.93,6.45,5.95,9.84,8.76,1.59,1.32,1.8,2.27,0,4.12-6.4,6.59-12.67,13.3-19,20-1.17,1.26-2.08,2-3.69,1-.52-.34-2.31.31-3,1C331.32,184.07,327.93,187.82,324.48,191.52Z"/><path class="cls-4" d="M252.79,247.08c4.84,5,4.84,5-.26,11.46l-18.62-15.93c2.09-1.72,4.14-3.5,6.32-5.1.31-.23,1.34.32,1.89.7,1.26.85,2.44,1.81,3.65,2.73Z"/></g><g id="Layer_10" data-name="Layer 10"><circle class="cls-5" cx="178.52" cy="322.29" r="77.86"/><circle class="cls-6" cx="178.52" cy="322.29" r="57.82"/><text class="cls-7" transform="translate(158.19 348.15)">$</text></g></svg>