<?xml version="1.0" encoding="utf-8"?>
<!-- Generator: Adobe Illustrator 23.0.2, SVG Export Plug-In . SVG Version: 6.00 Build 0)  -->
<svg version="1.1" xmlns="http://www.w3.org/2000/svg" xmlns:xlink="http://www.w3.org/1999/xlink" x="0px" y="0px"
	 viewBox="0 0 648 648" style="enable-background:new 0 0 648 648;" xml:space="preserve">
<style type="text/css">
	.st3{fill:#FFFFFF;stroke:#FFFFFF;stroke-width:5;stroke-miterlimit:10;}
</style>

<g id="personal-logo">
	<path class="bi1" d="M627,427.7c-42.2,98.9-151.5,149.6-252.4,150.2c-9.6-0.1-19.2-0.2-28.8-0.3c-0.1,0-0.1,0-0.2,0
		c-0.8,0-1.6-0.1-2.4-0.1c-0.1,0-0.2,0-0.2,0c-0.6-0.1-1.2-0.2-1.8-0.3c-0.4-0.1-0.9-0.2-1.3-0.3c-0.1,0-0.2-0.1-0.3-0.1
		c-8.4-2.1-15-8.3-18.3-16.4c-0.4-0.9-0.9-1.9-1.2-2.8c-6.4-16.9-12.9-33.9-19.3-50.8c-28-73.6-55.9-147.3-83.9-220.9
		c-9-23.6-17.9-47.2-26.9-70.8c-25.8,68-51.6,136-77.5,204c-17.5,46.2-35.1,92.4-52.6,138.5c-5.2,13.8-17.7,23.3-32.8,19.1
		C14.1,573,3.2,556.8,8.4,543c6.4-16.9,12.9-33.9,19.3-50.8c28-73.6,55.9-147.3,83.9-220.9c17.3-45.6,34.6-91.1,51.9-136.7
		c2.3-9.7,10.4-18.4,19.3-20.9c0.3-0.1,0.6-0.1,0.9-0.2c0.1,0,0.3-0.1,0.4-0.1c0.6-0.1,1.2-0.3,1.8-0.4c0.5-0.1,1.1-0.1,1.6-0.2
		c0.3,0,0.6-0.1,0.9-0.1c0.5,0,1.1,0,1.7,0c0.3,0,0.7,0,1,0c0.6,0,1.1,0.1,1.7,0.2c0.3,0,0.6,0.1,0.8,0.1c1.1,0.2,2.2,0.4,3.3,0.7
		c9,2.5,17,11.2,19.3,20.8c6.2,16.3,12.4,32.7,18.6,49c28,73.6,55.9,147.3,83.9,220.9c15,39.6,30.1,79.1,45.1,118.7
		c3.6,0,7.1,0.1,10.7,0.1c50.1-0.3,97.9-13.4,139.7-42.1c14.8-10.1,30.6-24.7,43.5-40.9c9-11.3,20.6-32.6,25.3-46.7
		c3.1-9.2,5.4-18.7,6.9-28.3c0-0.6,0.6-5.5,0.6-5.5c0.2-2.4,0.3-4.7,0.4-7.1c0.2-5.3,0.2-10.5-0.1-15.8c-0.5-10.9-1-14.1-3.9-26.2
		c-1.1-4.5-2.4-9-3.9-13.4c-0.9-2.6-1.8-5.3-2.8-7.9c-0.2-0.5-0.4-0.9-0.5-1.3c-0.1-0.2-0.3-0.5-0.5-1.2
		c-35.5-78.8-120.4-118.8-204.7-119.3c0,0-0.1,0-0.1,0c-12,0-23.9,0-35.9,0c0.6,1.6,1.2,3.2,1.8,4.8
		C376.2,266.7,412,361,447.8,455.3c5.2,13.8-5.8,30-18.6,33.6c-14.9,4.2-27.6-5.3-32.8-19.1c-5-13.1-10-26.3-15-39.4
		c-35.8-94.3-71.6-188.6-107.4-282.9c-3.2-8.3-0.4-17.5,5.1-24.2c3.5-5.1,8.9-8.8,16.2-9.9c0.1,0,0.3,0,0.4-0.1
		c0.5-0.1,1-0.1,1.5-0.2c0.8-0.1,1.6-0.1,2.4-0.1c0.1,0,0.1,0,0.2,0c0.2,0,0.4,0,0.6,0c0.1,0,0.2,0,0.4,0c24.6,0,49.2,0,73.8,0
		c0.1,0,0.2,0,0.3,0c60.2,0.4,121.7,17.2,171.2,52.9c40.4,29.1,72.5,68.6,88.5,116.8C650.3,330.3,646.4,382.1,627,427.7z"/>
</g>
</svg>
