<svg id="Layer_1" data-name="Layer 1" xmlns="http://www.w3.org/2000/svg" viewBox="0 0 648 648"><defs><style>.cls-1{fill:#020202;stroke:#020202;stroke-miterlimit:10;}</style></defs><title>Artboard 1</title><path class="cls-1" d="M407,585.47a504.8,504.8,0,0,1-66.95-4.7,27,27,0,0,1-21.48-16.7L180.27,219.63,56.75,561.16A27,27,0,0,1,6,542.79l147.6-408.1a27,27,0,0,1,50.44-.88L362.67,529.09c101.08,10.38,174.57-13.79,207.85-68.76C602.2,408,593.61,330.54,549.15,267.58,499.42,197.17,419.82,162,332,170.09L438.28,453.88a27,27,0,0,1-50.57,18.95l-118-315a27,27,0,0,1,19.83-35.92c64.21-13.24,125-8.11,180.64,15.25a286.59,286.59,0,0,1,123.08,99.27c27.18,38.5,44.12,82,49,125.88,5.13,46.39-3.7,89.95-25.52,126-22.13,36.56-57.46,64.34-102.16,80.32C483.16,579.84,447.13,585.47,407,585.47Z"/></svg>